<?xml version="1.0" encoding="utf-8"?>
<!-- Generator: Adobe Illustrator 25.0.0, SVG Export Plug-In . SVG Version: 6.00 Build 0)  -->
<svg version="1.1" id="Camada_1"
  xmlns="http://www.w3.org/2000/svg"
  xmlns:xlink="http://www.w3.org/1999/xlink" x="0px" y="0px" viewBox="0 0 165.9 76.7" style="enable-background:new 0 0 165.9 76.7;" xml:space="preserve">
  <style type="text/css">
	.st0{fill:#fff;}
  </style>
  <g id="Grupo_259" transform="translate(-760.88 -811.346)">
    <path id="Caminho_257" class="st0" d="M837.8,821.4c0,1.9-1.5,3.4-3.4,3.3c-1.9,0-3.4-1.5-3.3-3.4c0-1.9,1.5-3.4,3.4-3.3
		c0.9,0,1.7,0.4,2.4,1C837.5,819.6,837.8,820.5,837.8,821.4z"/>
    <path id="Caminho_258" class="st0" d="M849.3,811.7h6.9l2.7,10.4l2.6-10.4h6.9v17h-4.3v-13l-3.3,13h-3.9l-3.3-13v13h-4.3
		L849.3,811.7z"/>
    <path id="Caminho_259" class="st0" d="M871.8,811.7h8.7c1.5-0.1,3.1,0.4,4.3,1.4c1,1,1.5,2.4,1.4,3.9c0.1,1.5-0.5,3-1.5,4
		c-1.3,1.1-3,1.6-4.7,1.5H877v6.3h-5.3L871.8,811.7z M877,818.9h1.3c0.8,0.1,1.5-0.1,2.1-0.5c0.4-0.3,0.6-0.8,0.6-1.4
		c0-0.5-0.2-1-0.5-1.4c-0.6-0.4-1.3-0.6-2-0.6H877L877,818.9z"/>
    <path id="Caminho_260" class="st0" d="M888,823l5-0.3c0.1,0.7,0.3,1.3,0.7,1.9c0.6,0.7,1.4,1.1,2.3,1c0.6,0,1.2-0.1,1.7-0.5
		c0.4-0.3,0.6-0.7,0.6-1.2c0-0.5-0.2-0.9-0.6-1.2c-0.8-0.5-1.7-0.9-2.7-1c-1.8-0.3-3.5-1-4.9-2.1c-1-0.8-1.5-2-1.5-3.3
		c0-0.9,0.3-1.7,0.8-2.5c0.6-0.8,1.4-1.5,2.3-1.8c1.3-0.5,2.8-0.7,4.2-0.7c1.7-0.1,3.5,0.3,5,1.2c1.2,0.9,2,2.3,2,3.9l-5,0.3
		c-0.1-1.3-1.1-2.3-2.4-2.2c-0.1,0-0.1,0-0.2,0c-0.5,0-1,0.1-1.4,0.4c-0.3,0.2-0.5,0.6-0.5,0.9c0,0.3,0.2,0.6,0.4,0.7
		c0.5,0.3,1.1,0.6,1.8,0.6c1.7,0.3,3.4,0.8,4.9,1.5c0.9,0.4,1.6,1.1,2.2,1.9c0.5,0.8,0.7,1.6,0.7,2.5c0,1.1-0.3,2.1-0.9,3
		c-0.6,0.9-1.5,1.7-2.5,2.1c-1.3,0.5-2.7,0.8-4.1,0.7c-2.9,0-4.9-0.6-6-1.7C888.8,826.2,888.1,824.6,888,823z"/>
    <path id="Caminho_261" class="st0" d="M920.9,821.4c0,1.9-1.5,3.4-3.4,3.3c-1.9,0-3.4-1.5-3.3-3.4c0-1.9,1.5-3.4,3.4-3.3
		c0.9,0,1.7,0.4,2.4,1C920.5,819.6,920.9,820.5,920.9,821.4z"/>
    <path id="Caminho_262" class="st0" d="M785.4,842.6h4.8c0.8,0,1.6,0.1,2.3,0.4c0.6,0.2,1.1,0.6,1.4,1.1c0.4,0.5,0.7,1.1,0.8,1.7
		c0.2,0.7,0.3,1.3,0.3,2c0,0.9-0.1,1.8-0.4,2.6c-0.2,0.6-0.6,1.1-1.1,1.5c-0.4,0.4-0.9,0.7-1.4,0.8c-0.6,0.2-1.3,0.3-1.9,0.3h-4.8
		L785.4,842.6z M788.6,845v5.7h0.8c0.5,0,1,0,1.4-0.2c0.3-0.2,0.5-0.5,0.7-0.8c0.2-0.6,0.3-1.2,0.2-1.8c0.1-0.8-0.1-1.6-0.5-2.3
		c-0.5-0.5-1.1-0.7-1.8-0.6L788.6,845z"/>
    <path id="Caminho_263" class="st0" d="M805.1,850h-5.8c0,0.4,0.1,0.7,0.4,1c0.3,0.3,0.7,0.5,1.1,0.5c0.3,0,0.6-0.1,0.8-0.2
		c0.2-0.1,0.4-0.3,0.5-0.5l2.8,0.3c-0.4,0.7-0.9,1.2-1.6,1.6c-0.8,0.4-1.7,0.5-2.6,0.5c-0.8,0-1.6-0.1-2.4-0.4
		c-0.6-0.3-1.1-0.8-1.4-1.3c-0.4-0.7-0.6-1.4-0.6-2.2c0-1.1,0.4-2.1,1.1-2.9c0.9-0.8,2-1.2,3.1-1.1c0.9,0,1.8,0.1,2.6,0.5
		c0.6,0.3,1.1,0.8,1.4,1.4c0.4,0.8,0.5,1.6,0.5,2.4L805.1,850z M802.2,848.6c0-0.4-0.2-0.9-0.5-1.2c-0.6-0.5-1.5-0.5-2,0.1
		c0,0,0,0.1-0.1,0.1c-0.2,0.3-0.3,0.7-0.3,1L802.2,848.6z"/>
    <path id="Caminho_264" class="st0" d="M806.8,855.9v-10.4h2.7v1.1c0.3-0.4,0.6-0.7,1-1c0.4-0.2,0.9-0.3,1.4-0.3
		c0.9,0,1.8,0.4,2.3,1.2c0.6,0.8,0.9,1.8,0.8,2.9c0.1,1-0.2,2.1-0.9,2.9c-0.6,0.6-1.4,1-2.3,1c-0.4,0-0.8-0.1-1.2-0.2
		c-0.4-0.2-0.7-0.4-1-0.7v3.6L806.8,855.9z M809.7,849.3c0,0.5,0.1,0.9,0.4,1.3c0.2,0.3,0.6,0.4,1,0.4c0.3,0,0.6-0.2,0.8-0.4
		c0.3-0.4,0.4-0.9,0.3-1.4c0-0.5-0.1-0.9-0.4-1.3c-0.2-0.3-0.5-0.4-0.9-0.4c-0.4,0-0.7,0.2-0.9,0.4
		C809.8,848.3,809.7,848.8,809.7,849.3z"/>
    <path id="Caminho_265" class="st0" d="M819.5,847.9l-2.8-0.3c0.1-0.4,0.2-0.8,0.5-1.1c0.2-0.3,0.5-0.5,0.8-0.7
		c0.3-0.2,0.7-0.3,1.1-0.3c0.5-0.1,1-0.1,1.5-0.1c0.7,0,1.4,0,2.1,0.1c0.5,0.1,0.9,0.3,1.3,0.6c0.3,0.2,0.5,0.6,0.6,0.9
		c0.1,0.4,0.2,0.7,0.2,1.1v3.3c0,0.3,0,0.6,0.1,0.8c0.1,0.3,0.2,0.5,0.3,0.8h-2.7c-0.1-0.1-0.2-0.3-0.2-0.4c0-0.2-0.1-0.3-0.1-0.5
		c-0.3,0.3-0.7,0.6-1.1,0.8c-0.6,0.2-1.2,0.3-1.8,0.3c-0.7,0.1-1.5-0.2-2-0.6c-0.5-0.4-0.7-0.9-0.7-1.5c0-0.5,0.2-1,0.5-1.4
		c0.5-0.5,1.2-0.7,1.9-0.8c1.1-0.2,1.8-0.4,2.1-0.5c0.3-0.1,0.7-0.2,1-0.3c0-0.3-0.1-0.5-0.2-0.7c-0.2-0.2-0.5-0.2-0.8-0.2
		c-0.4,0-0.7,0.1-1.1,0.2C819.7,847.4,819.6,847.7,819.5,847.9z M822,849.5c-0.4,0.1-0.8,0.3-1.2,0.4c-0.4,0.1-0.8,0.2-1.1,0.5
		c-0.2,0.1-0.2,0.3-0.2,0.5c0,0.2,0.1,0.4,0.2,0.6c0.2,0.2,0.4,0.2,0.7,0.2c0.3,0,0.6-0.1,0.9-0.2c0.2-0.1,0.5-0.3,0.6-0.6
		c0.1-0.3,0.2-0.6,0.2-0.9L822,849.5z"/>
    <path id="Caminho_266" class="st0" d="M827,845.5h2.7v1.2c0.2-0.4,0.5-0.8,0.8-1.1c0.3-0.2,0.7-0.3,1-0.3c0.5,0,1,0.2,1.4,0.4
		l-0.9,2c-0.3-0.1-0.5-0.2-0.8-0.2c-0.4,0-0.7,0.2-0.9,0.5c-0.4,0.8-0.5,1.6-0.4,2.5v2.5H827L827,845.5z"/>
    <path id="Caminho_267" class="st0" d="M838,842.6v2.9h1.6v2.1H838v2.7c0,0.2,0,0.4,0.1,0.6c0.1,0.2,0.3,0.3,0.5,0.2
		c0.3,0,0.6-0.1,0.9-0.2l0.2,2c-0.7,0.1-1.3,0.2-2,0.2c-0.5,0-1.1-0.1-1.6-0.3c-0.3-0.2-0.6-0.5-0.8-0.8c-0.2-0.6-0.3-1.2-0.2-1.8
		v-2.7H834v-2.1h1.1v-1.4L838,842.6z"/>
    <path id="Caminho_268" class="st0" d="M843.9,847.9l-2.8-0.3c0.1-0.4,0.2-0.8,0.5-1.1c0.2-0.3,0.5-0.5,0.8-0.7
		c0.3-0.2,0.7-0.3,1.1-0.3c0.5-0.1,1-0.1,1.5-0.1c0.7,0,1.4,0,2.1,0.1c0.5,0.1,0.9,0.3,1.3,0.6c0.3,0.2,0.5,0.6,0.6,0.9
		c0.1,0.4,0.2,0.7,0.2,1.1v3.3c0,0.3,0,0.6,0.1,0.8c0.1,0.3,0.2,0.5,0.3,0.8h-2.7c-0.1-0.1-0.2-0.3-0.2-0.4c0-0.2-0.1-0.3-0.1-0.5
		c-0.3,0.3-0.7,0.6-1.1,0.8c-0.6,0.2-1.2,0.3-1.8,0.3c-0.7,0.1-1.5-0.2-2-0.6c-0.5-0.4-0.7-0.9-0.7-1.5c0-0.5,0.2-1,0.5-1.4
		c0.5-0.5,1.2-0.7,1.9-0.8c1.1-0.2,1.8-0.4,2.1-0.5c0.3-0.1,0.7-0.2,1-0.3c0-0.3-0.1-0.5-0.2-0.7c-0.2-0.2-0.5-0.2-0.8-0.2
		c-0.4,0-0.7,0.1-1.1,0.2C844.1,847.4,844,847.7,843.9,847.9z M846.4,849.5c-0.4,0.1-0.8,0.3-1.2,0.4c-0.4,0.1-0.8,0.2-1.1,0.5
		c-0.3,0.3-0.3,0.7,0,1c0,0,0,0,0,0c0.2,0.2,0.4,0.2,0.7,0.2c0.3,0,0.6-0.1,0.9-0.2c0.2-0.1,0.5-0.3,0.6-0.6
		c0.1-0.3,0.2-0.6,0.2-0.9L846.4,849.5z"/>
    <path id="Caminho_269" class="st0" d="M851.4,845.5h2.7v1.1c0.3-0.4,0.7-0.7,1.2-1c0.4-0.2,0.9-0.3,1.4-0.3c0.5,0,1,0.1,1.4,0.3
		c0.4,0.2,0.7,0.6,0.9,1c0.3-0.4,0.8-0.7,1.2-1c0.4-0.2,0.9-0.3,1.4-0.3c0.7,0,1.4,0.2,1.9,0.7c0.5,0.6,0.7,1.4,0.7,2.3v4.7h-2.9
		v-4.3c0-0.3-0.1-0.5-0.2-0.8c-0.2-0.2-0.4-0.4-0.7-0.4c-0.3,0-0.6,0.1-0.8,0.4c-0.2,0.3-0.3,0.8-0.3,1.2v3.9h-2.9v-4.1
		c0-0.2,0-0.5-0.1-0.7c-0.1-0.2-0.2-0.3-0.3-0.5c-0.2-0.1-0.3-0.2-0.5-0.2c-0.3,0-0.6,0.1-0.8,0.4c-0.2,0.4-0.4,0.8-0.3,1.2v3.8
		h-2.9L851.4,845.5z"/>
    <path id="Caminho_270" class="st0" d="M874.6,850h-5.8c0,0.4,0.1,0.7,0.4,1c0.3,0.3,0.7,0.5,1.1,0.5c0.3,0,0.6-0.1,0.8-0.2
		c0.2-0.1,0.4-0.3,0.5-0.5l2.8,0.3c-0.4,0.7-0.9,1.2-1.6,1.6c-0.8,0.4-1.7,0.5-2.6,0.5c-0.8,0-1.6-0.1-2.4-0.4
		c-0.6-0.3-1.1-0.8-1.4-1.3c-0.4-0.7-0.6-1.4-0.6-2.2c0-1.1,0.4-2.1,1.1-2.9c0.9-0.8,2-1.2,3.1-1.1c0.9,0,1.8,0.1,2.6,0.5
		c0.6,0.3,1.1,0.8,1.4,1.4c0.4,0.8,0.5,1.6,0.5,2.4L874.6,850z M871.6,848.6c0-0.4-0.2-0.9-0.5-1.2c-0.6-0.5-1.5-0.5-2,0.1
		c0,0,0,0.1-0.1,0.1c-0.2,0.3-0.3,0.7-0.3,1L871.6,848.6z"/>
    <path id="Caminho_271" class="st0" d="M876.3,845.5h2.7v1.2c0.3-0.4,0.7-0.8,1.2-1.1c0.5-0.2,1-0.3,1.5-0.3c0.7,0,1.4,0.2,1.9,0.7
		c0.5,0.6,0.7,1.4,0.7,2.2v4.8h-2.9v-4.1c0-0.4-0.1-0.7-0.3-1c-0.2-0.2-0.5-0.3-0.7-0.3c-0.3,0-0.6,0.1-0.9,0.4
		c-0.3,0.4-0.4,0.9-0.3,1.4v3.6h-2.9L876.3,845.5z"/>
    <path id="Caminho_272" class="st0" d="M889.8,842.6v2.9h1.6v2.1h-1.6v2.7c0,0.2,0,0.4,0.1,0.6c0.1,0.2,0.3,0.3,0.5,0.2
		c0.3,0,0.6-0.1,0.9-0.2l0.2,2c-0.7,0.1-1.3,0.2-2,0.2c-0.5,0-1.1-0.1-1.6-0.3c-0.3-0.2-0.6-0.5-0.8-0.8c-0.2-0.6-0.3-1.2-0.2-1.8
		v-2.7h-1.1v-2.1h1.1v-1.4L889.8,842.6z"/>
    <path id="Caminho_273" class="st0" d="M892.8,849.3c0-1.1,0.4-2.1,1.2-2.8c1.9-1.6,4.7-1.5,6.6,0.2c1.3,1.6,1.2,4-0.2,5.5
		c-0.9,0.8-2,1.2-3.2,1.1c-1.1,0-2.1-0.3-2.9-0.9C893.3,851.6,892.7,850.4,892.8,849.3z M895.7,849.3c0,0.5,0.1,1.1,0.4,1.5
		c0.5,0.6,1.3,0.6,1.9,0.2c0.1-0.1,0.1-0.1,0.2-0.2c0.3-0.4,0.4-1,0.4-1.5c0-0.5-0.1-1-0.4-1.5c-0.2-0.3-0.6-0.5-1-0.5
		c-0.4,0-0.8,0.2-1,0.5C895.8,848.2,895.6,848.8,895.7,849.3L895.7,849.3z"/>
    <path id="Caminho_274" class="st0" d="M916.3,842.6V853h-2.7v-1.1c-0.3,0.4-0.6,0.7-1,1c-0.4,0.2-0.9,0.3-1.4,0.3
		c-0.9,0-1.8-0.4-2.4-1.2c-0.6-0.8-0.8-1.8-0.8-2.8c-0.1-1,0.3-2.1,0.9-2.9c0.6-0.7,1.4-1,2.3-1c0.4,0,0.8,0.1,1.2,0.2
		c0.4,0.2,0.7,0.4,1,0.7v-3.6L916.3,842.6z M913.4,849.2c0-0.5-0.1-0.9-0.4-1.3c-0.2-0.3-0.6-0.4-1-0.4c-0.3,0-0.6,0.2-0.8,0.4
		c-0.3,0.4-0.4,0.9-0.3,1.4c0,0.5,0.1,1,0.4,1.4c0.2,0.3,0.5,0.4,0.9,0.4c0.4,0,0.7-0.2,0.9-0.4
		C913.3,850.2,913.5,849.7,913.4,849.2L913.4,849.2z"/>
    <path id="Caminho_275" class="st0" d="M926.8,850H921c0,0.4,0.2,0.7,0.4,1c0.3,0.3,0.7,0.5,1.1,0.5c0.3,0,0.6-0.1,0.8-0.2
		c0.2-0.1,0.4-0.3,0.5-0.5l2.8,0.3c-0.4,0.7-0.9,1.2-1.6,1.6c-0.8,0.4-1.7,0.5-2.6,0.5c-0.8,0-1.6-0.1-2.4-0.4
		c-0.6-0.3-1.1-0.8-1.4-1.3c-0.4-0.7-0.6-1.4-0.6-2.2c0-1.1,0.4-2.1,1.1-2.9c0.9-0.8,2-1.2,3.1-1.1c0.9,0,1.8,0.1,2.6,0.5
		c0.6,0.3,1.1,0.8,1.4,1.4c0.4,0.8,0.5,1.6,0.5,2.4L926.8,850z M923.9,848.6c0-0.4-0.2-0.9-0.5-1.2c-0.6-0.5-1.5-0.5-2,0.1
		c0,0,0,0.1-0.1,0.1c-0.2,0.3-0.3,0.7-0.3,1L923.9,848.6z"/>
    <path id="Caminho_276" class="st0" d="M760.9,860.1h4.2l1.6,6.3l1.6-6.3h4.2v10.4h-2.6v-7.9l-2,7.9h-2.4l-2-7.9v7.9h-2.6V860.1z"/>
    <path id="Caminho_277" class="st0" d="M783.2,867.4h-5.8c0,0.4,0.1,0.7,0.4,1c0.3,0.3,0.7,0.5,1.1,0.5c0.3,0,0.6-0.1,0.8-0.2
		c0.2-0.1,0.4-0.3,0.5-0.5l2.8,0.3c-0.4,0.7-0.9,1.2-1.6,1.6c-0.8,0.4-1.7,0.5-2.6,0.5c-0.8,0-1.6-0.1-2.4-0.4
		c-0.6-0.3-1.1-0.8-1.4-1.3c-0.4-0.7-0.6-1.4-0.6-2.2c0-1.1,0.4-2.1,1.1-2.9c0.9-0.8,2-1.2,3.1-1.1c0.9,0,1.8,0.1,2.6,0.5
		c0.6,0.3,1.1,0.8,1.4,1.4c0.4,0.8,0.5,1.6,0.5,2.4L783.2,867.4z M780.2,866c0-0.4-0.2-0.9-0.5-1.2c-0.6-0.5-1.5-0.5-2,0.1
		c0,0,0,0-0.1,0.1c-0.2,0.3-0.3,0.7-0.3,1L780.2,866z"/>
    <path id="Caminho_278" class="st0" d="M792.8,860.1v10.4h-2.7v-1.1c-0.3,0.4-0.6,0.7-1,1c-0.4,0.2-0.9,0.3-1.4,0.3
		c-0.9,0-1.8-0.4-2.4-1.2c-0.6-0.8-0.8-1.8-0.8-2.8c-0.1-1,0.3-2.1,0.9-2.9c0.6-0.7,1.4-1,2.3-1c0.4,0,0.8,0.1,1.2,0.2
		c0.4,0.2,0.7,0.4,1,0.7v-3.6L792.8,860.1z M789.9,866.7c0-0.5-0.1-0.9-0.4-1.3c-0.2-0.3-0.6-0.4-1-0.4c-0.3,0-0.6,0.2-0.8,0.4
		c-0.3,0.4-0.4,0.9-0.3,1.4c0,0.5,0.1,1,0.4,1.4c0.2,0.3,0.5,0.4,0.9,0.4c0.4,0,0.7-0.2,0.9-0.4
		C789.8,867.7,789.9,867.2,789.9,866.7z"/>
    <path id="Caminho_279" class="st0" d="M795,860.1h2.9v2H795V860.1z M795,862.9h2.9v7.5H795V862.9z"/>
    <path id="Caminho_280" class="st0" d="M805.7,867.5l2.7,0.3c-0.1,0.5-0.4,1.1-0.7,1.5c-0.4,0.4-0.8,0.8-1.3,1
		c-0.7,0.3-1.3,0.4-2,0.3c-0.7,0-1.3-0.1-2-0.2c-0.5-0.1-1-0.4-1.4-0.7c-0.4-0.3-0.7-0.7-0.9-1.2c-0.2-0.6-0.4-1.2-0.3-1.8
		c0-0.7,0.1-1.3,0.4-1.9c0.2-0.4,0.5-0.7,0.8-1c0.3-0.3,0.7-0.5,1-0.7c0.7-0.3,1.4-0.4,2.2-0.3c1-0.1,2,0.2,2.8,0.7
		c0.7,0.5,1.1,1.1,1.4,1.9l-2.7,0.4c-0.1-0.3-0.2-0.5-0.5-0.7c-0.3-0.2-0.6-0.3-0.9-0.2c-0.4,0-0.9,0.2-1.2,0.5
		c-0.3,0.4-0.5,1-0.4,1.6c0,0.5,0.1,1,0.4,1.4c0.3,0.3,0.7,0.5,1.1,0.5c0.3,0,0.7-0.1,1-0.3C805.4,868.2,805.6,867.9,805.7,867.5z" />
    <path id="Caminho_281" class="st0" d="M810.3,860.1h2.9v2h-2.9V860.1z M810.3,862.9h2.9v7.5h-2.9V862.9z"/>
    <path id="Caminho_282" class="st0" d="M815.4,862.9h2.7v1.2c0.3-0.4,0.7-0.8,1.2-1.1c0.5-0.2,1-0.3,1.5-0.3c0.7,0,1.4,0.2,1.9,0.7
		c0.5,0.6,0.7,1.4,0.7,2.2v4.8h-2.9v-4.1c0-0.4-0.1-0.7-0.3-1c-0.2-0.2-0.5-0.3-0.7-0.3c-0.3,0-0.6,0.1-0.9,0.4
		c-0.3,0.4-0.4,0.9-0.3,1.4v3.6h-2.9L815.4,862.9z"/>
    <path id="Caminho_283" class="st0" d="M828,865.4l-2.8-0.3c0.1-0.4,0.2-0.8,0.5-1.1c0.2-0.3,0.5-0.5,0.8-0.7
		c0.3-0.2,0.7-0.3,1.1-0.3c0.5-0.1,1-0.1,1.5-0.1c0.7,0,1.4,0,2.1,0.1c0.5,0.1,0.9,0.3,1.3,0.6c0.3,0.2,0.5,0.6,0.6,0.9
		c0.1,0.4,0.2,0.7,0.2,1.1v3.3c0,0.3,0,0.6,0.1,0.8c0.1,0.3,0.2,0.5,0.3,0.8H831c-0.1-0.1-0.2-0.3-0.2-0.4c0-0.2-0.1-0.3-0.1-0.5
		c-0.3,0.3-0.7,0.6-1.1,0.8c-0.6,0.2-1.2,0.3-1.8,0.3c-0.7,0.1-1.5-0.2-2-0.6c-0.5-0.4-0.7-0.9-0.7-1.5c0-0.5,0.2-1,0.5-1.4
		c0.5-0.5,1.2-0.7,1.9-0.8c1.1-0.2,1.8-0.4,2.1-0.5c0.3-0.1,0.7-0.2,1-0.3c0-0.3-0.1-0.5-0.2-0.7c-0.2-0.2-0.5-0.2-0.8-0.2
		c-0.4,0-0.7,0.1-1.1,0.2C828.3,864.9,828.1,865.1,828,865.4z M830.5,866.9c-0.4,0.1-0.8,0.3-1.2,0.4c-0.4,0.1-0.8,0.2-1.1,0.5
		c-0.3,0.3-0.3,0.7,0,1c0,0,0,0,0,0c0.2,0.2,0.4,0.2,0.7,0.2c0.3,0,0.6-0.1,0.9-0.2c0.2-0.1,0.5-0.3,0.6-0.6
		c0.1-0.3,0.2-0.6,0.2-0.9L830.5,866.9z"/>
    <path id="Caminho_284" class="st0" d="M840.8,860.1h5.3c0.9-0.1,1.9,0.2,2.6,0.8c0.6,0.6,0.9,1.5,0.9,2.4c0.1,0.9-0.3,1.8-0.9,2.5
		c-0.8,0.7-1.8,1-2.9,0.9h-1.8v3.9h-3.2L840.8,860.1z M844.1,864.5h0.8c0.5,0,0.9-0.1,1.3-0.3c0.2-0.2,0.4-0.5,0.4-0.8
		c0-0.3-0.1-0.6-0.3-0.8c-0.3-0.3-0.8-0.4-1.2-0.3h-0.9L844.1,864.5z"/>
    <path id="Caminho_285" class="st0" d="M851.5,862.9h2.7v1.2c0.2-0.4,0.5-0.8,0.8-1.1c0.3-0.2,0.7-0.3,1-0.3c0.5,0,1,0.2,1.4,0.4
		l-0.9,2.1c-0.3-0.1-0.5-0.2-0.8-0.2c-0.4,0-0.7,0.2-0.9,0.5c-0.4,0.8-0.5,1.6-0.4,2.5v2.5h-2.9L851.5,862.9z"/>
    <path id="Caminho_286" class="st0" d="M866.9,867.4h-5.8c0,0.4,0.1,0.7,0.4,1c0.3,0.3,0.7,0.5,1.1,0.5c0.3,0,0.6-0.1,0.8-0.2
		c0.2-0.1,0.4-0.3,0.5-0.5l2.8,0.3c-0.4,0.7-0.9,1.2-1.6,1.6c-0.8,0.4-1.7,0.5-2.6,0.5c-0.8,0-1.6-0.1-2.4-0.4
		c-0.6-0.3-1.1-0.8-1.4-1.3c-0.4-0.7-0.6-1.4-0.6-2.2c0-1.1,0.4-2.1,1.1-2.9c0.9-0.8,2-1.2,3.1-1.1c0.9,0,1.8,0.1,2.6,0.5
		c0.6,0.3,1.1,0.8,1.4,1.4c0.4,0.8,0.5,1.6,0.5,2.4L866.9,867.4z M864,866c0-0.4-0.2-0.9-0.5-1.2c-0.6-0.5-1.5-0.5-2,0.1
		c0,0,0,0-0.1,0.1c-0.2,0.3-0.3,0.7-0.3,1L864,866z"/>
    <path id="Caminho_287" class="st0" d="M867.4,862.9h3l1.5,4.8l1.5-4.8h2.9l-3.2,7.5h-2.6L867.4,862.9z"/>
    <path id="Caminho_288" class="st0" d="M885.5,867.4h-5.8c0,0.4,0.1,0.7,0.4,1c0.3,0.3,0.7,0.5,1.1,0.5c0.3,0,0.6-0.1,0.8-0.2
		c0.2-0.1,0.4-0.3,0.5-0.5l2.8,0.3c-0.4,0.7-0.9,1.2-1.6,1.6c-0.8,0.4-1.7,0.5-2.6,0.5c-0.8,0-1.6-0.1-2.4-0.4
		c-0.6-0.3-1.1-0.8-1.4-1.3c-0.4-0.7-0.6-1.4-0.6-2.2c0-1.1,0.4-2.1,1.1-2.9c0.9-0.8,2-1.2,3.1-1.1c0.9,0,1.8,0.1,2.6,0.5
		c0.6,0.3,1.1,0.8,1.4,1.4c0.4,0.8,0.5,1.6,0.5,2.4L885.5,867.4z M882.5,866c0-0.4-0.2-0.9-0.5-1.2c-0.6-0.5-1.5-0.5-2,0.1
		c0,0,0,0-0.1,0.1c-0.2,0.3-0.3,0.7-0.3,1L882.5,866z"/>
    <path id="Caminho_289" class="st0" d="M887.1,862.9h2.7v1.2c0.3-0.4,0.7-0.8,1.2-1.1c0.5-0.2,1-0.3,1.5-0.3c0.7,0,1.4,0.2,1.9,0.7
		c0.5,0.6,0.7,1.4,0.7,2.2v4.8h-2.9v-4.1c0-0.4-0.1-0.7-0.3-1c-0.2-0.2-0.5-0.3-0.7-0.3c-0.3,0-0.6,0.1-0.9,0.4
		c-0.3,0.4-0.4,0.9-0.3,1.4v3.6h-2.9L887.1,862.9z"/>
    <path id="Caminho_290" class="st0" d="M900.7,860.1v2.9h1.6v2.1h-1.6v2.7c0,0.2,0,0.4,0.1,0.6c0.1,0.2,0.3,0.3,0.5,0.2
		c0.3,0,0.6-0.1,0.9-0.2l0.2,2c-0.7,0.1-1.3,0.2-2,0.2c-0.5,0-1.1-0.1-1.6-0.3c-0.3-0.2-0.6-0.5-0.8-0.8c-0.2-0.6-0.3-1.2-0.2-1.8
		V865h-1.1v-2.1h1.1v-1.4L900.7,860.1z"/>
    <path id="Caminho_291" class="st0" d="M904.1,860.1h2.9v2h-2.9L904.1,860.1z M904.1,862.9h2.9v7.5h-2.9L904.1,862.9z"/>
    <path id="Caminho_292" class="st0" d="M908.4,862.9h3l1.5,4.8l1.5-4.8h2.9l-3.2,7.5h-2.6L908.4,862.9z"/>
    <path id="Caminho_293" class="st0" d="M921.1,865.4l-2.8-0.3c0.1-0.4,0.2-0.8,0.5-1.1c0.2-0.3,0.5-0.5,0.8-0.7
		c0.3-0.2,0.7-0.3,1.1-0.3c0.5-0.1,1-0.1,1.5-0.1c0.7,0,1.4,0,2.1,0.1c0.5,0.1,0.9,0.3,1.3,0.6c0.3,0.2,0.5,0.6,0.6,0.9
		c0.1,0.4,0.2,0.7,0.2,1.1v3.3c0,0.3,0,0.6,0.1,0.8c0.1,0.3,0.2,0.5,0.3,0.8h-2.7c-0.1-0.1-0.2-0.3-0.2-0.4c0-0.2-0.1-0.3-0.1-0.5
		c-0.3,0.3-0.7,0.6-1.1,0.8c-0.6,0.2-1.2,0.3-1.8,0.3c-0.7,0.1-1.5-0.2-2-0.6c-0.5-0.4-0.7-0.9-0.7-1.5c0-0.5,0.2-1,0.5-1.4
		c0.5-0.5,1.2-0.7,1.9-0.8c1.1-0.2,1.8-0.4,2.1-0.5c0.3-0.1,0.7-0.2,1-0.3c0-0.3-0.1-0.5-0.2-0.7c-0.2-0.2-0.5-0.2-0.8-0.2
		c-0.4,0-0.7,0.1-1.1,0.2C921.3,864.9,921.1,865.1,921.1,865.4z M923.6,866.9c-0.4,0.1-0.8,0.3-1.2,0.4c-0.4,0.1-0.8,0.2-1.1,0.5
		c-0.3,0.3-0.3,0.7,0,1c0,0,0,0,0,0c0.2,0.2,0.4,0.2,0.7,0.2c0.3,0,0.6-0.1,0.9-0.2c0.2-0.1,0.5-0.3,0.6-0.6
		c0.1-0.3,0.2-0.6,0.2-0.9L923.6,866.9z"/>
    <path id="Caminho_294" class="st0" d="M870.2,884.8h-5.8c0,0.4,0.1,0.7,0.4,1c0.3,0.3,0.7,0.5,1.1,0.5c0.3,0,0.6-0.1,0.8-0.2
		c0.2-0.1,0.4-0.3,0.5-0.5l2.8,0.3c-0.4,0.7-0.9,1.2-1.6,1.6c-0.8,0.4-1.7,0.5-2.6,0.5c-0.8,0-1.6-0.1-2.4-0.4
		c-0.6-0.3-1.1-0.8-1.4-1.3c-0.4-0.7-0.6-1.4-0.6-2.2c0-1.1,0.4-2.1,1.1-2.9c0.9-0.8,2-1.2,3.1-1.1c0.9,0,1.8,0.1,2.6,0.5
		c0.6,0.3,1.1,0.8,1.4,1.4c0.4,0.8,0.5,1.6,0.5,2.4L870.2,884.8z M867.3,883.5c0-0.4-0.2-0.9-0.5-1.2c-0.6-0.5-1.5-0.5-2,0.1
		c0,0,0,0.1-0.1,0.1c-0.2,0.3-0.3,0.7-0.3,1L867.3,883.5z"/>
    <path id="Caminho_295" class="st0" d="M876.7,884.5l3.1-0.2c0,0.4,0.2,0.8,0.4,1.1c0.3,0.4,0.9,0.7,1.4,0.6c0.4,0,0.8-0.1,1.1-0.3
		c0.2-0.2,0.4-0.5,0.4-0.7c0-0.3-0.1-0.5-0.4-0.7c-0.5-0.3-1.1-0.5-1.6-0.6c-1.1-0.2-2.1-0.6-3-1.3c-0.6-0.5-0.9-1.2-0.9-2
		c0-0.5,0.2-1.1,0.5-1.5c0.3-0.5,0.8-0.9,1.4-1.1c0.8-0.3,1.7-0.4,2.6-0.4c1.1-0.1,2.1,0.2,3,0.7c0.7,0.6,1.2,1.4,1.2,2.4l-3,0.2
		c0-0.8-0.7-1.4-1.5-1.3c0,0-0.1,0-0.1,0c-0.3,0-0.6,0.1-0.8,0.2c-0.2,0.1-0.3,0.4-0.3,0.6c0,0.2,0.1,0.3,0.2,0.4
		c0.3,0.2,0.7,0.3,1.1,0.4c1,0.2,2.1,0.5,3,0.9c0.5,0.3,1,0.7,1.3,1.2c0.3,0.5,0.4,1,0.4,1.5c0,0.7-0.2,1.3-0.6,1.8
		c-0.4,0.6-0.9,1-1.5,1.3c-0.8,0.3-1.6,0.5-2.5,0.4c-1.8,0-3-0.3-3.7-1C877.2,886.4,876.8,885.4,876.7,884.5z"/>
    <path id="Caminho_296" class="st0" d="M887.6,884.1c0-1.1,0.4-2.1,1.2-2.8c1.9-1.6,4.7-1.5,6.6,0.2c1.3,1.6,1.2,4-0.2,5.5
		c-0.9,0.8-2,1.2-3.2,1.1c-1.1,0-2.1-0.3-2.9-0.9C888.1,886.4,887.6,885.3,887.6,884.1z M890.5,884.1c0,0.5,0.1,1.1,0.4,1.5
		c0.5,0.6,1.3,0.6,1.9,0.2c0.1-0.1,0.1-0.1,0.2-0.2c0.3-0.4,0.4-1,0.4-1.5c0-0.5-0.1-1-0.4-1.5c-0.2-0.3-0.6-0.5-1-0.5
		c-0.4,0-0.8,0.2-1,0.5C890.6,883.1,890.4,883.6,890.5,884.1L890.5,884.1z"/>
    <path id="Caminho_297" class="st0" d="M903.6,884.9l2.7,0.3c-0.1,0.5-0.4,1.1-0.7,1.5c-0.4,0.4-0.8,0.8-1.3,1
		c-0.7,0.3-1.3,0.4-2,0.3c-0.7,0-1.3-0.1-2-0.2c-0.5-0.1-1-0.4-1.4-0.7c-0.4-0.3-0.7-0.7-0.9-1.2c-0.2-0.6-0.4-1.2-0.3-1.8
		c0-0.7,0.1-1.3,0.4-1.9c0.2-0.4,0.5-0.7,0.8-1c0.3-0.3,0.7-0.5,1-0.7c0.7-0.3,1.4-0.4,2.2-0.3c1-0.1,2,0.2,2.8,0.7
		c0.7,0.5,1.1,1.1,1.4,1.9l-2.7,0.4c-0.1-0.3-0.2-0.5-0.5-0.7c-0.3-0.2-0.6-0.3-0.9-0.2c-0.4,0-0.9,0.2-1.2,0.5
		c-0.3,0.4-0.5,1-0.4,1.6c0,0.5,0.1,1,0.4,1.4c0.3,0.3,0.7,0.5,1.1,0.5c0.3,0,0.7-0.1,1-0.3C903.3,885.6,903.5,885.3,903.6,884.9z" />
    <path id="Caminho_298" class="st0" d="M908.2,877.5h2.9v2h-2.9V877.5z M908.2,880.4h2.9v7.5h-2.9V880.4z"/>
    <path id="Caminho_299" class="st0" d="M915.9,882.8l-2.8-0.3c0.1-0.4,0.2-0.8,0.5-1.1c0.2-0.3,0.5-0.5,0.8-0.7
		c0.3-0.2,0.7-0.3,1.1-0.3c0.5-0.1,1-0.1,1.5-0.1c0.7,0,1.4,0,2.1,0.1c0.5,0.1,0.9,0.3,1.3,0.6c0.3,0.2,0.5,0.6,0.6,0.9
		c0.1,0.4,0.2,0.7,0.2,1.1v3.3c0,0.3,0,0.6,0.1,0.8c0.1,0.3,0.2,0.5,0.3,0.8h-2.7c-0.1-0.1-0.2-0.3-0.2-0.4c0-0.2-0.1-0.3-0.1-0.5
		c-0.3,0.3-0.7,0.6-1.1,0.8c-0.6,0.2-1.2,0.3-1.8,0.3c-0.7,0.1-1.5-0.2-2-0.6c-0.5-0.4-0.7-0.9-0.7-1.5c0-0.5,0.2-1,0.5-1.4
		c0.5-0.5,1.2-0.7,1.9-0.8c1.1-0.2,1.8-0.4,2.1-0.5c0.3-0.1,0.7-0.2,1-0.3c0-0.3-0.1-0.5-0.2-0.7c-0.2-0.2-0.5-0.2-0.8-0.2
		c-0.4,0-0.7,0.1-1.1,0.2C916.1,882.3,915.9,882.5,915.9,882.8z M918.4,884.3c-0.4,0.1-0.8,0.3-1.2,0.4c-0.4,0.1-0.8,0.2-1.1,0.5
		c-0.3,0.3-0.3,0.7,0,1c0,0,0,0,0,0c0.2,0.2,0.4,0.2,0.7,0.2c0.3,0,0.6-0.1,0.9-0.2c0.2-0.1,0.5-0.3,0.6-0.6
		c0.1-0.3,0.2-0.6,0.2-0.9L918.4,884.3z"/>
    <path id="Caminho_300" class="st0" d="M923.4,877.5h2.9v10.4h-2.9V877.5z"/>
  </g>
</svg>
