<svg xmlns="http://www.w3.org/2000/svg" width="117.174" height="117.074" viewBox="0 0 117.174 117.074">
  <g id="Grupo_384" data-name="Grupo 384" transform="translate(-5616.253 -1758.791)">
    <path id="Caminho_579" data-name="Caminho 579" d="M5628.353,1827.074a12.382,12.382,0,0,1,9.76-19.572c-2.632-4.062-3.182-8.314-1.017-12.65s5.887-6.488,10.607-6.815a36.7,36.7,0,0,1-1.724-4.31,12.07,12.07,0,0,1,11.293-15.121c3.966-.111,7.938-.074,11.906-.026a7.939,7.939,0,0,0,7.062-3.5c1.2-1.7,2.483-3.334,3.736-4.994,1.35-1.789,3.246-1.719,4.453.158a28.96,28.96,0,0,1,4.856,12.783c.546,5.363-.077,10.464-3.627,14.936,1.2.107,2.336.134,3.447.318a12.145,12.145,0,0,1-.858,24.068c-2.673.221-5.372.162-8.06.162q-20.741,0-41.483-.035a7.334,7.334,0,0,0-7.373,4.892,7.225,7.225,0,0,0,6.3,9.627c.574.036,1.152.033,1.728.035,9.217.024,18.435.034,27.653.094a4.071,4.071,0,0,1,2.045.588,2.13,2.13,0,0,1,.765,2.566,2.329,2.329,0,0,1-2.04,1.651,8.257,8.257,0,0,1-1.055.021q-18.966,0-37.931,0a7.427,7.427,0,0,0-7.289,5.054,7.328,7.328,0,0,0,6.5,9.566c.639.038,1.28.026,1.92.026q16.133,0,32.265,0c1.784,0,2.846.906,2.864,2.4a2.379,2.379,0,0,1-2.027,2.42,5.366,5.366,0,0,1-.861.048c-11.139,0-22.278.022-33.417-.007a12.181,12.181,0,0,1-1.064-24.333C5627.873,1827.122,5628.061,1827.1,5628.353,1827.074Zm39.1-19.548v.023c6.653,0,13.307.072,19.959-.024a7.222,7.222,0,0,0,6.742-8.975,7.321,7.321,0,0,0-7.509-5.606c-9.34.007-18.68.041-28.021.05-3.582,0-7.166-.1-10.746-.029a7.244,7.244,0,0,0-7.186,7.438,7.393,7.393,0,0,0,7.377,7.159C5654.523,1807.438,5660.986,1807.526,5667.448,1807.526Zm14.491-41.894-2.076,2.73a12.154,12.154,0,0,1-10.158,5.057c-4.032,0-8.065-.042-12.1.018a7.317,7.317,0,0,0-7.17,7.294,7.237,7.237,0,0,0,7.041,7.3q8.734.126,17.473,0a9.251,9.251,0,0,0,8.674-6.186C5685.509,1776.292,5684.643,1770.959,5681.939,1765.632Z" fill="#fff"/>
    <path id="Caminho_580" data-name="Caminho 580" d="M5679.46,1860.489c.172-1.064.387-2.681.706-4.276a2.826,2.826,0,0,0-.956-2.833c-.841-.785-1.658-1.6-2.433-2.45-2.578-2.822-2.584-5.835-.018-8.64.8-.872,1.64-1.708,2.5-2.52a2.753,2.753,0,0,0,.91-2.756c-.259-1.251-.448-2.517-.627-3.782-.508-3.591,1.074-5.957,4.609-6.791a39.309,39.309,0,0,1,3.976-.637,2.14,2.14,0,0,0,1.835-1.329c.441-.992.857-2,1.375-2.953a13.419,13.419,0,0,1,1.661-2.557,4.656,4.656,0,0,1,5.6-1.213,26.575,26.575,0,0,1,3.827,1.974,2.916,2.916,0,0,0,3.389.011,26.127,26.127,0,0,1,3.373-1.816c2.839-1.25,5.228-.555,6.884,2.074a29.819,29.819,0,0,1,2,4.03,2.708,2.708,0,0,0,2.421,1.842,26.17,26.17,0,0,1,4.062.684,5.174,5.174,0,0,1,4.226,5.7,32.28,32.28,0,0,1-.669,4.643,2.961,2.961,0,0,0,1.013,2.995,33.843,33.843,0,0,1,2.556,2.6c2.326,2.658,2.336,5.547.017,8.21-.859.987-1.812,1.9-2.755,2.806a2.645,2.645,0,0,0-.857,2.59c.258,1.317.469,2.644.651,3.973.476,3.49-1.107,5.853-4.527,6.671a34.985,34.985,0,0,1-3.974.65,2.263,2.263,0,0,0-1.975,1.427c-.572,1.284-1.126,2.582-1.8,3.811-1.138,2.068-2.774,3.533-5.305,3.18a13.5,13.5,0,0,1-3.4-1.23,19.775,19.775,0,0,1-2.343-1.308,2.3,2.3,0,0,0-2.61.029c-.761.469-1.553.89-2.344,1.31a15.765,15.765,0,0,1-1.641.788,4.985,4.985,0,0,1-6.521-2.028,17.345,17.345,0,0,1-1.851-3.668,3.474,3.474,0,0,0-3.427-2.5,16.23,16.23,0,0,1-3.665-.681C5680.683,1865.679,5679.437,1863.841,5679.46,1860.489Zm44.483-28.278c.075-.621-.232-.906-.8-1-.852-.135-1.7-.345-2.556-.4a7.568,7.568,0,0,1-7.145-5.176c-.365-.951-.88-1.843-1.3-2.773-.292-.643-.678-.742-1.288-.389-1.188.689-2.39,1.359-3.609,1.99a6.3,6.3,0,0,1-6.079.059c-1.278-.657-2.536-1.355-3.792-2.053-.6-.335-.991-.233-1.285.418q-.906,2.008-1.884,3.984a6.536,6.536,0,0,1-5.24,3.728c-1.14.163-2.276.351-3.418.5-.93.119-1.358.525-1.154,1.53.26,1.283.423,2.585.635,3.877a6.889,6.889,0,0,1-1.91,6.256c-.937.962-1.868,1.93-2.819,2.878a1.163,1.163,0,0,0-.022,1.893c.975.969,1.941,1.949,2.887,2.946a6.809,6.809,0,0,1,1.869,6.085c-.237,1.45-.437,2.906-.664,4.358a.811.811,0,0,0,.772,1.071c.885.129,1.763.34,2.653.406a7.5,7.5,0,0,1,6.964,5c.377.948.883,1.843,1.28,2.784.357.844.856.879,1.57.44.843-.52,1.729-.97,2.579-1.479a7.082,7.082,0,0,1,7.721-.1c.966.566,1.937,1.121,2.9,1.693.618.368,1.048.284,1.363-.416q.9-2.008,1.882-3.985a6.552,6.552,0,0,1,5.229-3.744c1.265-.185,2.525-.4,3.79-.591a.855.855,0,0,0,.823-1.129c-.211-1.292-.354-2.6-.607-3.881a7.336,7.336,0,0,1,2.434-7.18c.815-.765,1.572-1.593,2.356-2.39a1.051,1.051,0,0,0-.013-1.669q-1.413-1.434-2.821-2.876a6.923,6.923,0,0,1-2-6.319C5723.49,1835.114,5723.71,1833.661,5723.943,1832.211Z" fill="#fff"/>
    <path id="Caminho_581" data-name="Caminho 581" d="M5708.224,1851.322c1.331.306,2.683.541,3.985.939a2.4,2.4,0,0,1-1.182,4.64c-.786-.116-1.551-.392-2.338-.476a4,4,0,0,0-4.6,2.876c-.648,1.711-2.127,2.4-3.537,1.639a2.467,2.467,0,0,1-1.138-3.042A9.265,9.265,0,0,1,5708.224,1851.322Z" fill="#fff"/>
    <path id="Caminho_582" data-name="Caminho 582" d="M5704.36,1837.447a11.084,11.084,0,0,1-2.039,5.323,11.671,11.671,0,0,1-4.538,3.594,2.408,2.408,0,0,1-2.408-4.142c.487-.359,1.039-.627,1.542-.965,1.927-1.3,2.986-3.443,1.826-5.8a2.411,2.411,0,1,1,4.388-1.993A40.563,40.563,0,0,1,5704.36,1837.447Z" fill="#fff"/>
  </g>
</svg>
