<svg xmlns="http://www.w3.org/2000/svg" width="41.482" height="65.23" viewBox="0 0 41.482 65.23">
  <g id="Grupo_91" data-name="Grupo 91" transform="translate(-8839.59 -5978.384)">
    <path id="Caminho_123" data-name="Caminho 123" d="M8860.393,6029.72c-2.573,0-5.146.013-7.721-.006a1.95,1.95,0,0,1-2.159-1.889,1.725,1.725,0,0,1,1.19-1.829c.672-.2.594-.529.52-1a17.866,17.866,0,0,0-3.692-8.1c-1.909-2.5-4.091-4.8-5.812-7.444a18.74,18.74,0,0,1-2-16.836,20.227,20.227,0,0,1,13.045-13.147,20.871,20.871,0,0,1,21.462,5.2,20.586,20.586,0,0,1,5.774,16.381,18.147,18.147,0,0,1-3.971,9.808c-1.612,2.077-3.309,4.089-4.914,6.17a17.209,17.209,0,0,0-3.64,8.209c-.048.345-.118.539.344.687a1.8,1.8,0,0,1,1.358,2.1,1.9,1.9,0,0,1-2.061,1.69C8865.54,6029.734,8862.966,6029.72,8860.393,6029.72Zm-4.5-45.267c-.017-1.171-1.126-1.734-2.346-1.2a17.4,17.4,0,0,0-7.3,5.947,16.81,16.81,0,0,0-2.528,5.373,1.493,1.493,0,0,0,.9,1.976c.838.281,1.548-.136,1.915-1.128.09-.243.178-.488.256-.735a13.976,13.976,0,0,1,3.317-5.511,14.3,14.3,0,0,1,4.589-3.195A1.629,1.629,0,0,0,8855.893,5984.453Z" fill="#fff"/>
    <path id="Caminho_124" data-name="Caminho 124" d="M8860.387,6035.645c2.513,0,5.025,0,7.537,0a2.194,2.194,0,0,1,1.964.884,1.941,1.941,0,0,1-1.524,3.049,3.534,3.534,0,0,0-3.013,1.857,3.951,3.951,0,0,1-3.281,2.091,14.272,14.272,0,0,1-4.14-.117,3.8,3.8,0,0,1-2.533-1.941,3.483,3.483,0,0,0-3-1.884,1.916,1.916,0,0,1-1.9-2.046,1.978,1.978,0,0,1,2.091-1.879C8855.188,6035.625,8857.788,6035.646,8860.387,6035.645Z" fill="#fff"/>
    <path id="Caminho_125" data-name="Caminho 125" d="M8860.388,6034.678c-2.515,0-5.03.018-7.547-.007-1.7-.017-2.685-1.194-2.217-2.59a1.953,1.953,0,0,1,2.087-1.347c3.9-.011,7.807,0,11.711,0,1.186,0,2.371-.012,3.556,0a2.023,2.023,0,0,1,2.259,1.987,2.049,2.049,0,0,1-2.3,1.952C8865.42,6034.7,8862.9,6034.678,8860.388,6034.678Z" fill="#fff"/>
  </g>
</svg>
