<?xml version="1.0" encoding="utf-8"?>
<!-- Generator: Adobe Illustrator 25.0.0, SVG Export Plug-In . SVG Version: 6.00 Build 0)  -->
<svg version="1.1" id="Camada_1" xmlns="http://www.w3.org/2000/svg" xmlns:xlink="http://www.w3.org/1999/xlink" x="0px" y="0px"
	 viewBox="0 0 85 71.6" style="enable-background:new 0 0 85 71.6;" xml:space="preserve">
<style type="text/css">
	.st0{clip-path:url(#SVGID_2_);}
	.st1{clip-path:url(#SVGID_4_);}
	.st2{fill:#FFFFFF;}
</style>
<g id="Grupo_142" transform="translate(-6633.843 -2168.845)">
	<g>
		<defs>
			<rect id="SVGID_1_" x="6636.2" y="2170.9" width="80.2" height="67.6"/>
		</defs>
		<clipPath id="SVGID_2_">
			<use xlink:href="#SVGID_1_"  style="overflow:visible;"/>
		</clipPath>
		<g id="Grupo_141" class="st0">
			<g id="Grupo_140">
				<g>
					<defs>
						<rect id="SVGID_3_" x="6636.2" y="2170.9" width="80.2" height="67.6"/>
					</defs>
					<clipPath id="SVGID_4_">
						<use xlink:href="#SVGID_3_"  style="overflow:visible;"/>
					</clipPath>
					<g id="Grupo_139" class="st1">
						<path id="Caminho_184" class="st2" d="M6711.9,2183.5v3.5c0.4,0.1,0.8,0.2,1.2,0.4v46.4c-6-2-12.4-2.9-18.8-2.6
							c-6.1,1.3-11.9,3.8-17.1,7.3c12.5-5.2,26.6-5.2,39.2,0v-53.3C6714.9,2184.5,6713.4,2184,6711.9,2183.5"/>
						<path id="Caminho_185" class="st2" d="M6679.8,2232.6c8.1-7,16.9-10.8,25.1-10.8v-46.4c-8.1,0-16.9,3.8-25.1,10.8V2232.6z
							 M6707.5,2225.4c-9.7-1-20.6,3.7-30.3,13v-53.3c9.7-9.4,20.6-14,30.3-13V2225.4"/>
						<path id="Caminho_186" class="st2" d="M6707.5,2177.3v3.5c0.5,0.1,1,0.1,1.4,0.2v46.4c-5.7-1-11.5-0.7-17.1,0.9
							c-5.4,2.5-10.4,6-14.6,10.2c11.1-7.4,23.6-9.9,34.7-6.9v-53.3C6710.4,2177.8,6709,2177.5,6707.5,2177.3"/>
						<path id="Caminho_187" class="st2" d="M6641,2183.5v3.5c-0.4,0.1-0.8,0.2-1.2,0.4v46.4c6-2,12.4-2.9,18.8-2.6
							c6.1,1.3,11.9,3.8,17.1,7.3c-12.5-5.2-26.6-5.2-39.2,0v-53.3C6637.9,2184.5,6639.4,2184,6641,2183.5"/>
						<path id="Caminho_188" class="st2" d="M6673,2186.2c-8.1-7-16.9-10.8-25.1-10.8v46.4c8.1,0,16.9,3.8,25.1,10.8V2186.2z
							 M6645.4,2172.1c9.7-1,20.6,3.7,30.3,13v53.3c-9.7-9.4-20.6-14-30.3-13V2172.1"/>
						<path id="Caminho_189" class="st2" d="M6645.4,2177.3v3.5c-0.5,0.1-1,0.1-1.4,0.2v46.4c5.7-1,11.5-0.7,17.1,0.9
							c5.4,2.5,10.4,6,14.6,10.2c-11.1-7.4-23.6-9.9-34.7-6.9v-53.3C6642.4,2177.8,6643.9,2177.5,6645.4,2177.3"/>
					</g>
				</g>
			</g>
		</g>
	</g>
</g>
</svg>
