<?xml version="1.0" encoding="utf-8"?>
<!-- Generator: Adobe Illustrator 23.1.1, SVG Export Plug-In . SVG Version: 6.00 Build 0)  -->
<svg version="1.1" id="Camada_1" xmlns="http://www.w3.org/2000/svg" xmlns:xlink="http://www.w3.org/1999/xlink" x="0px" y="0px"
	 viewBox="0 0 289 289" style="enable-background:new 0 0 289 289;" xml:space="preserve">
<style type="text/css">
	.st0{display:none;}
	.st1{display:inline;fill:#A7A8AB;}
	.st2{fill:#A7A8AB;}
</style>
<g id="Grupo_90" transform="translate(-230 -140)" class="st0">
	<path id="Caminho_2066" class="st1" d="M316.7,197.8c-13.3,0-24.1-11.2-24.1-24.9v-8c0-13.7,10.8-24.9,24.1-24.9
		s24.1,11.2,24.1,24.9v8C340.8,186.6,330,197.8,316.7,197.8z M316.7,149.6c-8,0-14.4,6.8-14.4,15.3v8c0,8.4,6.5,15.3,14.4,15.3
		s14.4-6.8,14.4-15.3v-8C331.1,156.5,324.7,149.6,316.7,149.6L316.7,149.6z"/>
	<path id="Caminho_2067" class="st1" d="M307.1,376h-19.3c-5.3,0-9.6-4.2-9.6-9.5c-0.1-7.9,5-14.9,12.4-17.4l2-0.7V241.1h9.6v114.2
		l-8.6,2.9c-3.5,1.2-5.9,4.5-5.8,8.2l19.3-0.1c2.7,0,4.8-2.2,4.8-4.8v-72.2h9.6v72.2C321.5,369.5,315,376,307.1,376z"/>
	<path id="Caminho_2071" class="st1" d="M287.8,298.9c-8,0-14.4-6.5-14.4-14.4v-48.2c0-16,12.9-28.9,28.9-28.9h24.1v9.6h-24.1
		c-10.6,0-19.3,8.6-19.3,19.3v48.2c0,2.7,2.2,4.8,4.8,4.8c2.7,0,4.8-2.2,4.8-4.8h9.6C302.2,292.5,295.8,298.9,287.8,298.9z"/>
	<path id="Caminho_2072" class="st1" d="M432.3,197.8c-13.3,0-24.1-11.2-24.1-24.9v-8c0-13.7,10.8-24.9,24.1-24.9
		s24.1,11.2,24.1,24.9v8C456.4,186.6,445.6,197.8,432.3,197.8z M432.3,149.6c-8,0-14.4,6.8-14.4,15.3v8c0,8.4,6.5,15.3,14.4,15.3
		s14.4-6.8,14.4-15.3v-8C446.7,156.5,440.3,149.6,432.3,149.6L432.3,149.6z"/>
	<path id="Caminho_2073" class="st1" d="M461.2,376h-19.3c-8,0-14.4-6.5-14.4-14.4v-72.2h9.6v72.2c0,2.7,2.2,4.8,4.8,4.8h19.3
		c0-3.7-2.3-7-5.8-8.1l-8.6-2.9V241.1h9.6v107.3l2,0.7c7.5,2.5,12.5,9.5,12.4,17.4C470.8,371.8,466.5,376,461.2,376z"/>
	<path id="Caminho_2074" class="st1" d="M461.2,298.9c-8,0-14.4-6.5-14.4-14.4h9.6c0,2.7,2.2,4.8,4.8,4.8s4.8-2.2,4.8-4.8v-48.2
		c0-10.6-8.6-19.3-19.3-19.3h-24.1v-9.6h24.1c16,0,28.9,12.9,28.9,28.9v48.2C475.6,292.5,469.2,298.9,461.2,298.9z"/>
	<rect id="Retângulo_119" x="490" y="279.3" class="st1" width="29" height="10"/>
	
		<rect id="Retângulo_120" x="492.5" y="306.3" transform="matrix(0.7071 -0.7071 0.7071 0.7071 -81.0495 445.5537)" class="st1" width="9.6" height="28.6"/>
	
		<rect id="Retângulo_121" x="483" y="243.6" transform="matrix(0.7071 -0.7071 0.7071 0.7071 -29.9649 424.3938)" class="st1" width="28.6" height="9.6"/>
	<rect id="Retângulo_122" x="230" y="279.3" class="st1" width="29" height="10"/>
	
		<rect id="Retângulo_123" x="246.9" y="234.1" transform="matrix(0.7071 -0.7071 0.7071 0.7071 -101.9088 250.7049)" class="st1" width="9.6" height="28.6"/>
	
		<rect id="Retângulo_124" x="237.4" y="315.8" transform="matrix(0.7071 -0.7071 0.7071 0.7071 -152.994 271.8651)" class="st1" width="28.6" height="9.6"/>
</g>
<g>
	<path id="Caminho_2068" class="st2" d="M144.5,110.8c-13.3,0-24.1-11.2-24.1-24.9v-8c0-13.7,10.8-24.9,24.1-24.9
		s24.1,11.2,24.1,24.9v8C168.6,99.6,157.8,110.8,144.5,110.8z M144.5,62.6c-8,0-14.4,6.8-14.4,15.3v8c0,8.4,6.5,15.3,14.4,15.3
		s14.4-6.8,14.4-15.3v-8C158.9,69.5,152.5,62.6,144.5,62.6L144.5,62.6z"/>
	<rect id="Retângulo_118" x="140" y="202.3" class="st2" width="10" height="82"/>
	<path id="Caminho_2069" class="st2" d="M173.4,289h-57.8c-5.3,0-9.6-4.2-9.6-9.5c-0.1-7.9,5-14.9,12.4-17.4l2-0.7V154.1h9.6v114.2
		l-8.6,2.9c-3.5,1.2-5.9,4.5-5.8,8.2l57.8-0.1c0-3.7-2.3-7-5.8-8.1l-8.6-2.9V154.1h9.6v107.3l2,0.7c7.5,2.5,12.5,9.5,12.4,17.4
		C183,284.7,178.7,289,173.4,289z"/>
	<path id="Caminho_2070" class="st2" d="M173.4,211.9c-8,0-14.4-6.5-14.4-14.4h9.6c0,2.7,2.2,4.8,4.8,4.8s4.8-2.2,4.8-4.8v-48.2
		c0-10.6-8.6-19.3-19.3-19.3H130c-10.6,0-19.3,8.6-19.3,19.3v48.2c0,2.7,2.2,4.8,4.8,4.8s4.8-2.2,4.8-4.8h9.6
		c0,8-6.5,14.5-14.4,14.5c-8,0-14.5-6.5-14.5-14.5v-48.2c0-16,12.9-28.9,28.9-28.9h28.9c16,0,28.9,12.9,28.9,28.9v48.2
		C187.8,205.4,181.4,211.9,173.4,211.9z"/>
</g>
</svg>
