<?xml version="1.0" encoding="utf-8"?>
<!-- Generator: Adobe Illustrator 25.0.0, SVG Export Plug-In . SVG Version: 6.00 Build 0)  -->
<svg version="1.1" id="Camada_1" xmlns="http://www.w3.org/2000/svg" xmlns:xlink="http://www.w3.org/1999/xlink" x="0px" y="0px"
	 viewBox="0 0 74.25 74.24" style="enable-background:new 0 0 74.25 74.24;" xml:space="preserve">
<style type="text/css">
	.st0{fill:#FFFFFF;stroke:#FFFFFF;}
</style>
<g id="question" transform="translate(0.589 0.631)">
	<g id="Grupo_309" transform="translate(20.877 9.428)">
		<g id="Grupo_308">
			<path id="Caminho_2115" class="st0" d="M10,1.01C3.92,3.43-0.07,9.31-0.08,15.86c0.04,2.37,1.99,4.26,4.36,4.22
				c2.32-0.04,4.19-1.91,4.22-4.22c0-4.07,3.3-7.38,7.37-7.38c0,0,0,0,0.01,0c4.05,0.05,7.33,3.32,7.39,7.37
				c0.01,3.06-1.87,5.81-4.74,6.9c-2.04,0.77-3.8,2.15-5.04,3.94c-2.26,3.27-1.89,6.03-1.89,10.31c0,0.34,0.04,0.68,0.12,1.01
				c0.15,0.57,0.74,0.91,1.32,0.76c0.55-0.15,0.89-0.7,0.77-1.26c-0.08-0.35-0.06-0.1-0.06-4.74c0-3.57,2.22-6.77,5.56-8.02
				c4.9-1.89,7.34-7.4,5.45-12.31S17.34,5.1,12.44,7c-3.66,1.41-6.08,4.94-6.09,8.86C6.35,17.04,5.39,18,4.2,18
				c-1.18,0-2.14-0.96-2.14-2.14c0-7.63,6.19-13.82,13.82-13.82S29.7,8.23,29.7,15.86c0,5.72-3.52,10.85-8.86,12.9
				c-0.82,0.31-1.53,0.86-2.04,1.58c-0.97,1.39-0.77,2.19-0.77,6.67c0,1.18-0.96,2.14-2.15,2.14c-0.59,0-1.07,0.48-1.07,1.07
				c0,2.25,5.36,0.88,5.36-3.21v-4.24c0.01-0.91,0.58-1.71,1.44-2.02c8.21-3.21,12.27-12.46,9.07-20.68S18.21-2.19,10,1.01z"/>
		</g>
	</g>
	<g id="Grupo_311" transform="translate(32.549 55.181)">
		<g id="Grupo_310">
			<path id="Caminho_2116" class="st0" d="M7.87,1.95C6.64-0.07,4.01-0.71,1.99,0.51C-0.04,1.74-0.68,4.38,0.55,6.4
				c0.78,1.29,2.19,2.07,3.7,2.06C6.6,8.45,8.51,6.54,8.5,4.18C8.5,3.39,8.28,2.62,7.87,1.95z M3.7,6.25
				C2.89,6.07,2.26,5.42,2.11,4.6C1.88,3.44,2.62,2.31,3.78,2.08C4.94,1.84,6.07,2.59,6.3,3.75c0.23,1.16-0.51,2.29-1.67,2.52
				C4.32,6.33,4,6.33,3.7,6.25z"/>
		</g>
	</g>
	<g id="Grupo_313" transform="translate(0 0)">
		<g id="Grupo_312" transform="translate(0 0)">
			<path id="Caminho_2117" class="st0" d="M54.88,4.82C37.39-5.33,14.99,0.63,4.85,18.11c-5.25,9.05-6.37,19.9-3.1,29.83
				c1.19,3.65,2.97,7.08,5.27,10.16V58.1v0.01l0.01,0.01l0,0l0,0c0.24,0.21,0.57,0.3,0.89,0.24l0,0c0.07-0.01,0.14-0.03,0.2-0.06
				l0,0l0.02-0.01l0,0c0.54-0.24,0.79-0.87,0.56-1.41c-0.03-0.07-0.07-0.14-0.12-0.2C-7.94,33.84,8.6,2.04,36.53,2.04
				c19.02,0.01,34.44,15.43,34.44,34.46c-0.01,19.02-15.43,34.44-34.46,34.44c-7.25,0-14.31-2.29-20.18-6.54
				c-0.34-0.24-0.78-0.27-1.14-0.07L3.15,70.83c-0.36,0.19-0.81,0.06-1-0.3c-0.05-0.1-0.08-0.22-0.09-0.33
				c0-0.26-0.26,0.31,4.57-8.62c0.3-0.51,0.13-1.17-0.38-1.47s-1.17-0.13-1.47,0.38c-0.01,0.02-0.02,0.04-0.03,0.06
				c-4.86,8.98-4.83,8.68-4.83,9.64c0.01,1.59,1.31,2.87,2.9,2.87c0.47,0,0.94-0.12,1.35-0.35l11.45-6.2
				c16.58,11.56,39.39,7.5,50.96-9.08s7.5-39.39-9.08-50.96C56.65,5.89,55.77,5.33,54.88,4.82z"/>
		</g>
	</g>
</g>
</svg>
