<svg xmlns="http://www.w3.org/2000/svg" width="124.286" height="132.198" viewBox="0 0 124.286 132.198">
  <g id="Grupo_386" data-name="Grupo 386" transform="translate(-4674.331 -1749.373)">
    <path id="Caminho_583" data-name="Caminho 583" d="M4710.486,1823.656c-1.717-4.666-3.112-8.95-4.865-13.081a30.361,30.361,0,0,1-2.38-13.142,44.92,44.92,0,0,0-10.012-30.191,38.621,38.621,0,0,0-16.272-12.5c-1.757-.682-3.227-1.647-2.379-3.751s2.611-1.807,4.324-1.055c14.835,6.5,23.809,18.035,27.877,33.393,1.266,4.778,1.091,9.926,1.726,14.885a58.755,58.755,0,0,0,1.737,9.617c1.368,4.5,3.265,8.834,4.867,13.264,1.647,4.556-.6,7.7-5.5,7.79-1.986.034-3.973.005-5.863.005-.4,2.781.027,5.907-1.333,7.583-1.3,1.6-4.456,1.678-7.373,2.61,2,1.246,3.614,2.342,5.312,3.292a3.521,3.521,0,0,1,1.854,4.514c-.758,2.907-1.267,5.877-1.918,8.813a7.639,7.639,0,0,1-8.443,6.067c-3.39-.263-6.778-.545-10.413-.838-.611,3.283-1.193,6.419-1.777,9.554-.338,1.819-1,3.48-3.254,3.047-2.272-.437-2.207-2.26-1.875-4.05.657-3.55,1.412-7.085,1.969-10.65.415-2.652,1.825-3.524,4.4-3.216,3.285.393,6.608.484,9.886.923,2.8.374,4.535-.331,4.689-3.426a8.441,8.441,0,0,1,.32-1.468c1.14-4.873,1.15-4.885-2.943-7.76-1.975-1.388-3.072-3.211-2.66-5.643.425-2.515,1.94-4.329,4.5-4.615,3-.335,3.639-1.729,3.382-4.565-.463-5.114-.01-5.406,5.249-5.408Z" fill="#fff"/>
    <path id="Caminho_584" data-name="Caminho 584" d="M4798.474,1840.748c-1.908.148-3.831.213-5.744.236a8.8,8.8,0,0,1-.14,4.182c-.7,2.268-3.015,3.039-5.427,2.917-3.613-.183-4.224.492-3.667,4.055.69,4.418-2.335,7.5-6.7,6.814-3.6-.563-4.428.276-3.983,4.041a11.914,11.914,0,0,1-9.816,13.093c-6.685,1.246-12.968-2.494-14.525-8.661-.221-.874-.089-2-.6-2.6a4.208,4.208,0,0,0-2.772-1.592c-.72.028-1.74,1.258-1.989,2.135a6.7,6.7,0,0,0,.316,3.242,17.381,17.381,0,0,0,21.034,12.443c8.5-2.1,12.983-7.823,13.844-16.608,6.4-.884,10.061-4.542,10.765-11.041,1-.327,1.961-.579,2.874-.953a10.747,10.747,0,0,0,6.616-11.081C4798.541,1841.163,4798.507,1840.956,4798.474,1840.748Z" fill="#fff"/>
    <path id="Caminho_585" data-name="Caminho 585" d="M4798.474,1841.278c-1.908-.152-3.831-.218-5.744-.242a9.216,9.216,0,0,0-.14-4.28c-.7-2.321-3.015-3.111-5.427-2.986-3.613.187-4.224-.5-3.667-4.15.69-4.524-2.335-7.673-6.7-6.975-3.6.576-4.428-.283-3.983-4.137a12.157,12.157,0,0,0-9.816-13.4c-6.685-1.275-12.968,2.554-14.525,8.866-.221.9-.089,2.048-.6,2.66a4.184,4.184,0,0,1-2.772,1.629c-.72-.028-1.74-1.287-1.989-2.185a7.013,7.013,0,0,1,.316-3.319,17.353,17.353,0,0,1,21.034-12.737c8.5,2.152,12.983,8.009,13.844,17,6.4.9,10.061,4.65,10.765,11.3,1,.335,1.961.593,2.874.975a11.035,11.035,0,0,1,6.616,11.344C4798.541,1840.853,4798.507,1841.065,4798.474,1841.278Z" fill="#fff"/>
    <path id="Caminho_586" data-name="Caminho 586" d="M4722,1842.333c-4.116,0-8.243.168-12.34-.109-1.128-.076-2.887-1.327-3.093-2.305-.412-1.949,1.214-2.7,3.07-2.688,8.231.042,16.465-.013,24.691.226,1.05.03,2.057,1.579,3.084,2.424-1.022.863-2,2.393-3.074,2.471-4.094.294-8.223.118-12.338.118Z" fill="#fff"/>
    <path id="Caminho_587" data-name="Caminho 587" d="M4735.953,1857.874c-6.568-1.758-12.6-3.284-18.547-5.081-.707-.213-1.511-2.06-1.282-2.871a3.189,3.189,0,0,1,2.611-1.744q9.087,2.071,18.036,4.712c.7.207,1.452,1.992,1.285,2.876C4737.891,1856.635,4736.586,1857.287,4735.953,1857.874Z" fill="#fff"/>
    <path id="Caminho_588" data-name="Caminho 588" d="M4720.908,1832.887c-.519-.485-2.254-1.4-2.236-2.273a3.986,3.986,0,0,1,2.512-2.868,109.27,109.27,0,0,1,13.359-2.132c1.058-.1,2.261,1.307,3.4,2.021-.882,1.015-1.619,2.7-2.673,2.929C4730.864,1831.525,4726.367,1832.049,4720.908,1832.887Z" fill="#fff"/>
    <path id="Caminho_589" data-name="Caminho 589" d="M4764.658,1840.068c-.188,1.946-4.263,2.6-6.266,2.527-1.728-.062-5.223-1.112-5.166-2.761.064-1.825,3.2-2.408,5.715-2.275C4762.568,1837.752,4764.859,1837.983,4764.658,1840.068Z" fill="#fff"/>
    <path id="Caminho_590" data-name="Caminho 590" d="M4748.93,1839.647c-1.619,1.316-2.581,2.69-3.38,2.6-1.03-.116-1.93-1.4-2.886-2.184.767-.887,1.464-2.4,2.321-2.5C4745.966,1837.456,4747.088,1838.6,4748.93,1839.647Z" fill="#fff"/>
  </g>
</svg>
