<svg xmlns="http://www.w3.org/2000/svg" width="145.149" height="89.528" viewBox="0 0 145.149 89.528">
  <g id="Grupo_382" data-name="Grupo 382" transform="translate(-5287.276 -1777.318)">
    <path id="Caminho_569" data-name="Caminho 569" d="M5372.5,1781.542a17.41,17.41,0,0,1,8.452,2.587c2.776,1.687,5.541,3.4,8.336,5.051,1.546.916,3.44,1.908,4.99.94,4.356-2.721,5.581.137,7.189,3.321,4.267,8.454,8.612,16.877,13.226,25.144,1.367,2.449,1.032,4.148-.375,6.2a57.239,57.239,0,0,1-9.564,10.487c-2.071,1.823-3.158,1.414-4.826-.467-9.364-10.557-18.839-21.016-28.3-31.484-3.726-4.121-6.024-4.516-11.04-1.841-5.492,2.929-10.946,5.932-16.385,8.96-2.955,1.645-5.718,1.993-7.832-1.161-2.071-3.092-.362-5.5,1.968-7.385,8.008-6.488,16.218-12.705,25.306-17.653A20.366,20.366,0,0,1,5372.5,1781.542Z" fill="#fff"/>
    <path id="Caminho_570" data-name="Caminho 570" d="M5406.756,1838.508c2.508,5.954-2.053,11.839-9.086,11.383-2.483-.161-3.762.148-4.758,2.617-.874,2.166-3.042,3.972-5.391,3.75-3.554-.336-4.933,1.189-6.352,4.15a6.968,6.968,0,0,1-7.789,3.949c-.983-.168-2.528-.344-2.518-1.573a2.768,2.768,0,0,1,2.336-2.383c6.558-1.622,7.616-4.662,3.269-9.668-2.576-2.967-5.322-5.787-7.989-8.675-.948-1.026-2-2.17-.6-3.451,1.355-1.24,2.456-.223,3.449.811q5.213,5.426,10.453,10.828c2.069,2.135,4.464,3.542,7.048,1.13,2.617-2.443,1.264-4.917-.731-7.081-3.123-3.39-6.3-6.732-9.429-10.116-.9-.975-2.2-2.056-.787-3.426,1.528-1.482,2.649-.209,3.72.9,3.87,3.992,7.714,8.01,11.647,11.937,4.279,4.273,8.613,3.239,10.609-2.555C5404.385,1839.5,5405.623,1839.163,5406.756,1838.508Z" fill="#fff"/>
    <path id="Caminho_571" data-name="Caminho 571" d="M5358.858,1783.05c-1.06.738-1.673,2.665-3.546,1.536-2.483-1.5-4.723-.581-6.916.535-6.374,3.243-12.543,7.134-20.255,5.506-1.215-.257-1.474.962-1.9,1.765-4.654,8.709-9.258,17.446-13.983,26.116a3.058,3.058,0,0,0,.435,3.969,40.423,40.423,0,0,0,8.684,7.923c1.7,1.113,1.6,2.174.552,3.626-1.326,1.839-2.045-.087-2.9-.483a13.6,13.6,0,0,1-2.594-1.943c-10.292-8.279-10.524-9.344-4.469-20.743,3.871-7.287,7.824-14.531,11.591-21.871,1.186-2.312,2.441-3.1,5.1-2.3,4.746,1.433,9.032-.623,13.221-2.555,2.818-1.3,5.4-3.078,8.44-3.944a8.435,8.435,0,0,1,7.331,1.3C5358.159,1781.828,5358.856,1782.085,5358.858,1783.05Z" fill="#fff"/>
    <path id="Caminho_572" data-name="Caminho 572" d="M5343.649,1856.063c-.016-3.969,12.119-16.056,15.217-15.867a4.956,4.956,0,0,1,4.24,2.722,4.4,4.4,0,0,1-.446,5.31c-3.613,3.826-7.335,7.561-11.19,11.142-1.482,1.377-3.471,1.33-5.3.245A4.81,4.81,0,0,1,5343.649,1856.063Z" fill="#fff"/>
    <path id="Caminho_573" data-name="Caminho 573" d="M5350.269,1840.455c.044.881-.739,2.1-1.822,3.189-2.386,2.392-4.728,4.829-7.172,7.16-2.41,2.3-5.12,2.608-7.518.168-2.281-2.321-1.909-4.916.293-7.187,2.539-2.62,5.109-5.215,7.762-7.718a4.66,4.66,0,0,1,5.611-.881C5349.281,1836.108,5350.234,1837.631,5350.269,1840.455Z" fill="#fff"/>
    <path id="Caminho_574" data-name="Caminho 574" d="M5370.567,1856.346c.1,3.1-7.09,10.5-10.212,10.5-3.61,0-6.337-4.142-4.439-7.229a22.169,22.169,0,0,1,7.733-7.631C5366.7,1850.237,5370.448,1852.789,5370.567,1856.346Z" fill="#fff"/>
    <path id="Caminho_575" data-name="Caminho 575" d="M5334.883,1837.2c-.072,3.234-4.341,7.436-7.511,7.236a4.725,4.725,0,0,1-4.856-4.9c-.153-3,4.326-7.479,7.347-7.525A5.006,5.006,0,0,1,5334.883,1837.2Z" fill="#fff"/>
    <path id="Caminho_576" data-name="Caminho 576" d="M5431.045,1813.17c-5.036-9.426-10-18.892-15.14-28.26-4.686-8.542-2.5-7.675-11.406-3.384-2.757,1.329-2.985,2.773-1.532,5.394,5.181,9.345,10.136,18.814,15.181,28.235,4.471,8.347,4.85,8.426,12.666,3.081a2.751,2.751,0,0,0,1.611-2.382C5432.029,1815.084,5431.552,1814.119,5431.045,1813.17Zm-6.08,2.541a2.645,2.645,0,0,1-2.929-2.683,2.72,2.72,0,0,1,5.428-.24A2.626,2.626,0,0,1,5424.965,1815.711Z" fill="#fff"/>
    <path id="Caminho_577" data-name="Caminho 577" d="M5309.916,1777.319c-2.99-.046-4.618,1.764-5.892,4.192-5.145,9.806-10.368,19.573-15.491,29.391-2.614,5.009-1.338,7.433,5.588,11.071,4.339,2.278,7.173,1.373,9.607-3.2q7.335-13.768,14.588-27.581C5321.977,1784.259,5317.869,1777.48,5309.916,1777.319Zm4.951,12.1c-4.741,8.957-9.553,17.878-14.189,26.889-1.263,2.457-2.452,3.817-5.212,1.948-2.21-1.495-5.568-1.937-3.229-6.149,5.18-9.33,10-18.86,15-28.289.6-1.136.992-2.647,2.8-2.5C5314.477,1781.424,5316.926,1785.526,5314.867,1789.415Z" fill="#fff"/>
    <path id="Caminho_578" data-name="Caminho 578" d="M5296.812,1810.7a2.656,2.656,0,0,1,2.521,2.98,2.519,2.519,0,0,1-2.651,2.472,2.55,2.55,0,0,1-2.72-2.785C5294.018,1811.623,5295.091,1810.793,5296.812,1810.7Z" fill="#fff"/>
  </g>
</svg>
