<svg xmlns="http://www.w3.org/2000/svg" width="71.076" height="71.135" viewBox="0 0 71.076 71.135">
  <g id="Grupo_101" data-name="Grupo 101" transform="translate(-4632.787 -5976.595)">
    <path id="Caminho_138" data-name="Caminho 138" d="M4703.863,6012.229a35.538,35.538,0,1,1-35.373-35.634A35.552,35.552,0,0,1,4703.863,6012.229Zm-5.151-.033a30.381,30.381,0,1,0-30.509,30.377A30.405,30.405,0,0,0,4698.712,6012.2Z" fill="#fff"/>
    <path id="Caminho_139" data-name="Caminho 139" d="M4665.839,6033.815c-3.765.015-6.2-2.815-5.462-6.675.637-3.322,1.6-6.582,2.44-9.865.6-2.353,1.241-4.7,1.832-7.051.407-1.62-.062-2.1-1.759-2.048-.86.025-2.209.705-2.367-.749-.168-1.543,1.33-1.2,2.235-1.322,3.01-.391,6.03-.7,9.046-1.048,1.786-.207,2.182.245,1.717,2.037q-2.286,8.814-4.58,17.626c-.25.962-.817,2.258.341,2.7a5,5,0,0,0,3.083-.462c.6-.222.956-1.03,1.521-1.434.344-.246,1.1-.451,1.278-.276a1.655,1.655,0,0,1,.4,1.393C4674.337,6030.415,4669.692,6033.8,4665.839,6033.815Z" fill="#fff"/>
    <path id="Caminho_140" data-name="Caminho 140" d="M4671.26,6000.606a5.047,5.047,0,1,1,5.084-5.1A5.025,5.025,0,0,1,4671.26,6000.606Z" fill="#fff"/>
  </g>
</svg>
