<?xml version="1.0" encoding="utf-8"?>
<!-- Generator: Adobe Illustrator 23.1.1, SVG Export Plug-In . SVG Version: 6.00 Build 0)  -->
<svg version="1.1" id="Camada_1" xmlns="http://www.w3.org/2000/svg" xmlns:xlink="http://www.w3.org/1999/xlink" x="0px" y="0px"
	 viewBox="0 0 133.1 91.2" style="enable-background:new 0 0 133.1 91.2;" xml:space="preserve">
<style type="text/css">
	.st0{display:none;}
	.st1{display:inline;fill:#A7A8AB;}
	.st2{fill:#ED1C24;}
</style>
<g class="st0">
	<path id="Caminho_2068" class="st1" d="M67.3,12.6C54,12.6,43.2,1.4,43.2-12.3v-8C43.2-34,54-45.2,67.3-45.2S91.3-34,91.3-20.3v8
		C91.3,1.4,80.5,12.6,67.3,12.6z M67.3-35.6c-8,0-14.4,6.8-14.4,15.3v8C52.8-3.9,59.3,3,67.3,3s14.4-6.8,14.4-15.3v-8
		C81.7-28.7,75.2-35.6,67.3-35.6L67.3-35.6z"/>
	<rect id="Retângulo_118" x="62.8" y="104.1" class="st1" width="10" height="82"/>
	<path id="Caminho_2069" class="st1" d="M96.2,190.8H38.4c-5.3,0-9.6-4.2-9.6-9.5c-0.1-7.9,5-14.9,12.4-17.4l2-0.7V55.9h9.6v114.2
		l-8.6,2.9c-3.5,1.2-5.9,4.5-5.8,8.2l57.8-0.1c0-3.7-2.3-7-5.8-8.1l-8.6-2.9V55.9h9.6v107.3l2,0.7c7.5,2.5,12.5,9.5,12.4,17.4
		C105.7,186.6,101.4,190.8,96.2,190.8z"/>
	<path id="Caminho_2070" class="st1" d="M96.2,113.7c-8,0-14.4-6.5-14.4-14.4h9.6c0,2.7,2.2,4.8,4.8,4.8s4.8-2.2,4.8-4.8V51.1
		c0-10.6-8.6-19.3-19.3-19.3H52.8c-10.6,0-19.3,8.6-19.3,19.3v48.2c0,2.7,2.2,4.8,4.8,4.8s4.8-2.2,4.8-4.8h9.6
		c0,8-6.5,14.5-14.4,14.5c-8,0-14.5-6.5-14.5-14.5V51.1c0-16,12.9-28.9,28.9-28.9h28.9c16,0,28.9,12.9,28.9,28.9v48.2
		C110.6,107.3,104.1,113.7,96.2,113.7z"/>
</g>
<g id="Grupo_91" transform="translate(-633 -475)">
	<path id="Polígono_1" class="st2" d="M761.2,512c4.8,2.8,6.4,8.9,3.6,13.7c-0.9,1.5-2.1,2.7-3.6,3.6L700,564.8
		c-4.8,2.8-10.9,1.2-13.7-3.6c-0.9-1.5-1.4-3.3-1.4-5V485c0-5.5,4.5-10,10-10c1.8,0,3.5,0.5,5,1.4L761.2,512z"/>
	<path id="Retângulo_125" class="st2" d="M643,499.6h53l0,0v43l0,0h-53c-5.5,0-10-4.5-10-10v-23C633,504.1,637.5,499.6,643,499.6z"
		/>
</g>
</svg>
